<svg xmlns="http://www.w3.org/2000/svg" width="80" height="80" viewBox="0 0 80 80"><g><g><g><path fill="#333" d="M80 40c0 22.091-17.909 40-40 40S0 62.091 0 40 17.909 0 40 0s40 17.909 40 40z"/></g><g><g/><g><g><g><path fill="#c4c4c4" d="M59.14 21.64c3.231 0 5.86 2.629 5.86 5.86v25c0 3.23-2.628 5.859-5.86 5.859H20.86a5.866 5.866 0 0 1-5.86-5.86v-25c0-3.23 2.629-5.859 5.86-5.859zm1.954 5.86a1.955 1.955 0 0 0-1.953-1.954H20.859a1.955 1.955 0 0 0-1.953 1.953v25c0 1.077.876 1.953 1.953 1.953h38.282a1.955 1.955 0 0 0 1.953-1.953z"/></g></g></g><g><g><g><path fill="#c4c4c4" d="M60.766 24.08L40.004 39.523 19.24 24.08l-2.331 3.134 23.094 17.177 23.093-17.177z"/></g></g></g></g></g></g></svg>