<svg xmlns="http://www.w3.org/2000/svg" width="80" height="80" viewBox="0 0 80 80"><g><g><g><path fill="#333" d="M80 40c0 22.091-17.909 40-40 40S0 62.091 0 40 17.909 0 40 0s40 17.909 40 40z"/></g><g><g/><g><g><g><path fill="#c4c4c4" d="M50.476 15C58.485 15 65 21.516 65 29.524v20.952C65 58.484 58.484 65 50.476 65H29.524C21.516 65 15 58.484 15 50.476V29.524C15 21.516 21.516 15 29.524 15zm10.618 14.524c0-5.855-4.763-10.618-10.618-10.618H29.524c-5.855 0-10.618 4.763-10.618 10.618v20.952c0 5.855 4.763 10.618 10.618 10.618h20.952c5.855 0 10.618-4.763 10.618-10.618z"/></g></g></g><g><g><g><path fill="#c4c4c4" d="M53.473 39.997c0 7.43-6.045 13.476-13.476 13.476-7.431 0-13.477-6.045-13.477-13.476 0-7.431 6.046-13.477 13.477-13.477 7.43 0 13.476 6.046 13.476 13.477zm-3.906 0c0-5.277-4.293-9.57-9.57-9.57s-9.57 4.293-9.57 9.57 4.293 9.57 9.57 9.57 9.57-4.293 9.57-9.57z"/></g></g></g><g><g><g><path fill="#c4c4c4" d="M53.673 28.286a1.953 1.953 0 1 0 0-3.906 1.953 1.953 0 0 0 0 3.906z"/></g></g></g></g></g></g></svg>