<svg xmlns="http://www.w3.org/2000/svg" width="86" height="86" viewBox="0 0 86 86">
<!-- <defs> -->
<!-- <mask id="ezcdb" width="2" height="2" x="-1" y="-1"> -->
<!-- <path fill="#fff" d="M3 3h80v80H3z"/> -->
<!-- <path d="M83 43c0 22.091-17.909 40-40 40S3 65.091 3 43 20.909 3 43 3s40 17.909 40 40z"/> -->
<!-- </mask> -->
<!-- <filter id="ezcda" width="108" height="108" x="-11" y="-11" filterUnits="userSpaceOnUse"> -->
<!-- <feOffset in="SourceGraphic" result="FeOffset1214Out"/> -->
<!-- <feGaussianBlur in="FeOffset1214Out" result="FeGaussianBlur1215Out" stdDeviation="1.6 1.6"/> -->
<!-- </filter> -->
<!-- </defs> -->
<path d="M83 43c0 22.091-17.909 40-40 40S3 65.091 3 43 20.909 3 43 3s40 17.909 40 40z" mask="url(&quot;#ezcdb&quot;)"/>
<path  fill-opacity=".25" d="M83 43c0 22.091-17.909 40-40 40S3 65.091 3 43 20.909 3 43 3s40 17.909 40 40z"/>
<path fill="#c4c4c4" d="M83 43c0 22.091-17.909 40-40 40S3 65.091 3 43 20.909 3 43 3s40 17.909 40 40z"/>

<path  d="M67.886 26.432L60.95 60.674c-.423 2.089-1.875 3.439-3.7 3.439-.933 0-1.889-.36-2.764-1.038l-.021-.017-.075-.06-.003-.002-7.876-6.342-5.43 5c-.919.845-1.968 1.293-3.035 1.293-1.692 0-3.145-1.15-3.793-3.001l-4.747-13.577-8.78-2.512a1.593 1.593 0 0 1-.04-.012c-2.292-.73-2.667-1.996-2.686-2.687-.02-.69.283-1.977 2.529-2.834l42.324-16.156c.622-.238 1.227-.358 1.798-.358 1.05 0 1.965.411 2.576 1.158.703.86.936 2.09.658 3.464zm-31.44 30.904l2.033-8.238c.06-.244.183-.469.356-.652L49.38 37.239l-16.937 8.653zm7.759-2.54l-3.432-2.764-1.887 7.642c.07-.053.141-.11.211-.175zm20.81-28.946c.122-.608.023-.932-.055-1.027-.059-.073-.218-.083-.308-.083-.146 0-.396.028-.753.165L21.588 41.056l8.898 2.546 25.085-12.815a1.465 1.465 0 0 1 1.733 2.308L42.053 49.301l5.31 4.277c.002 0 .003.002.004.003l8.925 7.186c.348.268.689.416.96.416.548 0 .76-.763.828-1.09z"/>

</svg>