<svg xmlns="http://www.w3.org/2000/svg" width="80" height="80" viewBox="0 0 80 80"><g><g><g><path fill="#c4c4c4" d="M80 40c0 22.091-17.909 40-40 40S0 62.091 0 40 17.909 0 40 0s40 17.909 40 40z"/></g><g><g/><g><path d="M61.954 44.949c3.79 3.684 5.764 6.827 5.867 9.34l.07 1.68-9.745.001c-1.004 0-2.829-.256-3.824-.764-1.822-.93-2.97-2.35-4.08-3.723-.77-.952-1.497-1.85-2.412-2.535-.319-.238-.607-.358-.77-.321-.181.04-.512.315-.85.956-.228.435-.445.85-.608 1.352-.267.824-.392 1.911-.392 3.42v1.615H43.6c-8.017 0-13.97-2.972-18.758-8.647-4.335-5.137-7.574-12.29-11.104-21.448l-.847-2.194h13.085c.435 1.158.281.636 1.139 3.087.75 2.14 1.775 5.07 2.945 7.549 1.686 3.572 2.657 3.998 2.772 4.037.034-.027.7-.533.977-3.254.193-1.897.1-4.023-.08-5.287-.273-1.94-.607-2.332-1.614-2.671l-2.644-.892 2.092-1.85c.632-.558 1.92-1.193 6.304-1.148 5.064.054 6.88.756 7.377.836l.411 2.024c.252 1.242.147 2.978.025 4.989-.105 1.715-.212 3.488-.09 4.952.116 1.398.4 1.94.562 2.141l.077.024c.5-.213 1.916-1.418 4.075-5.254 2.979-5.29 3.685-8.396 3.732-8.524l13.526-.006.262 1.296c.487 2.427-1.878 5.844-5.54 10.779-1.144 1.541-2.224 2.997-2.763 3.946-.427.75-.559 1.252.01 2.016.486.613 1.924 2.016 2.394 2.45zm-3.746 7.791h5.88c-.585-1.197-1.814-2.98-4.365-5.46-.352-.328-2.05-1.95-2.737-2.827l-.019-.025c-1.232-1.636-1.43-3.49-.248-5.572.637-1.12 1.721-2.582 2.978-4.274 1.44-1.942 3.645-4.868 4.576-6.92-.657 0-6.247-.006-7.888-.003-.707 1.857-2.02 4.7-3.432 7.168-4.404 7.701-6.73 6.519-7.132 6.643l-1.04-.32c-.011-.007-.393-.183-.752-.512-2.045-1.87-1.802-5.863-1.567-9.734.097-1.602.198-3.258.044-4.1-1.7-.245-4.381-.388-6.384-.298.47.898.663 1.9.798 2.854.164 1.16.302 3.266.153 5.379-.189 2.68-.752 4.527-1.722 5.646-.68.785-1.556 1.2-2.532 1.2-1.956 0-3.66-1.722-5.528-5.583-1.304-2.696-2.41-5.857-3.218-8.166l-.326-.927H17.6c3.085 7.802 5.999 13.94 9.702 18.33 3.983 4.72 8.697 7.114 14.739 7.458.077-1.077.238-1.963.497-2.76.247-.762.552-1.344.82-1.859.955-1.807 2.154-2.412 2.993-2.601a3.49 3.49 0 0 1 .77-.085c.723 0 1.633.219 2.635.967 1.24.926 2.13 2.027 2.99 3.092.98 1.212 1.827 2.26 3.038 2.878.385.196 1.706.423 2.398.412h.026z"/></g></g></g></g></svg>